PathFileType   4   (X/Y/Z)
DataRate	CameraRate	NumFrames	NumMarkers	Units	OrigDataRate	OrigDataStartFrame	OrigNumFrames
120.0	120.0	12	37	mm	120.0	40	156
Frame#	Time	midhip	hip_r	hip_l	knee_r	knee_l	ankle_r	ankle_l	midasis	asis_r	asis_l	psis_r	psis_l	epicondLat_r	epicondLat_l	epicondMed_r	epicondMed_l	malleolusLat_r	malleolusLat_l	malleolusMedv_r	malleolusMedv_l	neck	subclavicle_r	subclavicle_l	sternalnotch	xyphoidprocess	thighwand_r	thighwand_l	upperleg1_r	upperleg1_l	upperleg2_r	upperleg2_l	shankwand_r	shankwand_l	lowerleg1_r	lowerleg1_l	toe_r	toe_l
 	 	X1	Y1	Z1	X2	Y2	Z2	X3	Y3	Z3	X4	Y4	Z4	X5	Y5	Z5	X6	Y6	Z6	X7	Y7	Z7	X8	Y8	Z8	X9	Y9	Z9	X10	Y10	Z10	X11	Y11	Z11	X12	Y12	Z12	X13	Y13	Z13	X14	Y14	Z14	X15	Y15	Z15	X16	Y16	Z16	X17	Y17	Z17	X18	Y18	Z18	X19	Y19	Z19	X20	Y20	Z20	X21	Y21	Z21	X22	Y22	Z22	X23	Y23	Z23	X24	Y24	Z24	X25	Y25	Z25	X26	Y26	Z26	X27	Y27	Z27	X28	Y28	Z28	X29	Y29	Z29	X30	Y30	Z30	X31	Y31	Z31	X32	Y32	Z32	X33	Y33	Z33	X34	Y34	Z34	X35	Y35	Z35	X36	Y36	Z36	X37	Y37	Z37

	40	0.54167	-2024.233	901.646	196.830	-2022.933	893.032	245.666	-2023.272	890.809	139.120	-1896.406	492.372	259.670	-2049.692	480.080	131.396	-1943.290	77.102	271.297	-2123.412	68.270	156.857	-1943.827	988.283	190.131	-1943.498	990.444	293.733	-1944.156	986.121	86.529	-2143.914	1015.452	236.484	-2146.062	1016.810	151.846	-1892.704	495.614	318.966	-2042.704	480.741	72.312	-1906.116	496.615	204.626	-2066.305	481.384	177.042	-1950.348	78.943	308.590	-2125.940	66.289	117.487	-1945.693	85.311	238.162	-2116.824	77.490	185.890	-2070.271	1470.648	162.765	-1969.162	1409.673	239.496	-1978.161	1399.309	93.004	-1986.238	1405.223	162.991	-1943.243	1204.863	167.751	-1896.336	598.143	403.914	-1896.722	596.259	127.097	-1889.641	662.722	332.875	-1964.806	662.035	84.091	-1869.866	583.971	311.003	-1981.802	576.611	87.312	-1934.041	158.294	374.565	-2003.184	164.727	156.375	-1944.419	215.148	311.381	-2061.397	222.821	140.201	-1826.457	65.453	266.106	-1995.102	41.040	149.820
	41	0.55000	-2018.979	901.122	196.805	-2017.818	892.599	246.136	-2018.482	890.181	139.596	-1887.995	492.926	259.424	-2046.835	479.669	131.673	-1924.218	76.529	270.137	-2123.322	68.362	156.938	-1938.890	987.755	190.184	-1938.244	990.107	293.814	-1939.536	985.402	86.555	-2138.705	1014.879	236.459	-2140.881	1016.213	151.836	-1884.368	496.075	318.730	-2039.699	480.316	72.606	-1898.449	496.926	204.550	-2063.234	481.098	177.303	-1931.359	78.109	307.426	-2125.803	66.405	117.565	-1926.825	84.690	237.039	-2116.691	77.519	185.996	-2064.780	1470.171	163.073	-1963.645	1408.876	239.996	-1972.695	1398.630	93.146	-1980.745	1404.512	163.314	-1938.125	1204.067	167.899	-1888.965	598.504	403.810	-1893.114	595.227	127.781	-1882.798	663.106	332.768	-1960.824	661.366	84.647	-1862.576	584.532	310.874	-1978.155	576.043	87.797	-1917.165	157.660	373.576	-2002.360	163.971	156.670	-1928.779	214.337	310.470	-2060.057	222.379	140.403	-1806.976	66.750	265.115	-1994.982	40.984	149.828
	42	0.55833	-2013.596	900.649	196.801	-2012.602	892.115	246.594	-2013.564	889.521	140.060	-1879.702	493.424	259.199	-2043.974	479.251	131.945	-1905.432	76.196	269.052	-2123.223	68.450	156.988	-1933.868	987.209	190.265	-1932.932	989.733	293.917	-1934.804	984.684	86.613	-2133.478	1014.227	236.498	-2135.690	1015.550	151.870	-1876.149	496.483	318.514	-2036.697	479.880	72.895	-1890.835	497.079	204.559	-2060.014	480.982	177.922	-1912.660	77.522	306.335	-2125.664	66.521	117.611	-1908.158	84.334	235.946	-2116.619	77.559	186.076	-2059.264	1469.638	163.453	-1958.177	1407.936	240.459	-1967.308	1397.944	93.286	-1975.316	1403.734	163.620	-1933.177	1203.180	167.848	-1881.658	598.805	403.713	-1889.452	594.195	128.444	-1876.080	663.414	332.678	-1956.736	660.697	85.117	-1855.363	584.977	310.780	-1974.421	575.415	88.387	-1900.567	157.213	372.648	-2001.521	163.216	156.917	-1913.374	213.680	309.658	-2058.848	222.001	140.538	-1787.778	68.086	264.250	-1994.881	40.940	149.789
	43	0.56667	-2008.151	900.151	196.811	-2007.240	891.581	246.992	-2008.428	888.845	140.463	-1871.507	493.858	259.003	-2041.093	478.831	132.202	-1886.957	76.083	268.044	-2123.119	68.532	157.003	-1928.705	986.664	190.368	-1927.549	989.326	294.042	-1929.860	984.001	86.695	-2128.224	1013.502	236.587	-2130.485	1014.826	151.945	-1868.037	496.834	318.327	-2033.689	479.431	73.167	-1883.371	497.131	204.602	-2056.873	480.839	178.364	-1894.275	77.160	305.317	-2125.520	66.632	117.622	-1889.555	84.175	234.889	-2116.596	77.607	186.107	-2053.715	1468.982	163.828	-1952.818	1406.936	241.015	-1961.847	1397.191	93.527	-1969.901	1402.891	164.008	-1928.207	1202.238	167.939	-1874.411	599.043	403.637	-1885.749	593.157	129.047	-1869.396	663.685	332.516	-1952.559	659.968	85.584	-1848.235	585.368	310.660	-1970.667	574.775	88.895	-1884.259	156.936	371.784	-2000.693	162.456	157.135	-1898.338	213.155	308.875	-2057.705	221.710	140.700	-1768.911	69.440	263.454	-1994.803	40.892	149.740
	44	0.57500	-2002.860	899.390	196.829	-2001.729	890.999	247.311	-2003.081	888.161	140.787	-1863.395	494.230	258.837	-2038.176	478.407	132.432	-1868.822	76.175	267.110	-2123.017	68.611	156.984	-1923.396	986.122	190.474	-1922.080	988.885	294.170	-1924.712	983.360	86.778	-2122.926	1012.715	236.701	-2125.246	1014.047	152.055	-1860.022	497.130	318.170	-2030.659	478.966	73.412	-1876.008	497.100	204.703	-2053.748	480.552	178.411	-1876.228	77.009	304.372	-2125.371	66.739	117.599	-1871.248	84.239	233.932	-2116.525	77.631	186.063	-2048.193	1468.307	164.260	-1947.417	1405.949	241.617	-1956.262	1396.411	93.904	-1964.402	1402.032	164.480	-1923.023	1201.310	168.192	-1867.221	599.222	403.596	-1882.007	592.101	129.575	-1862.738	663.914	332.377	-1948.332	659.255	86.077	-1841.164	585.658	310.572	-1966.871	574.170	89.245	-1868.246	156.815	370.991	-1999.901	161.697	157.332	-1883.594	212.818	308.129	-2056.531	221.457	140.908	-1750.405	70.808	262.683	-1994.762	40.845	149.699
	45	0.58333	-1997.658	898.443	196.860	-1996.118	890.377	247.596	-1997.640	887.463	141.076	-1855.370	494.544	258.706	-2035.207	477.970	132.638	-1851.056	76.458	266.249	-2122.919	68.696	156.947	-1918.009	985.568	190.566	-1916.528	988.405	294.291	-1919.490	982.731	86.842	-2117.583	1011.879	236.836	-2119.969	1013.224	152.204	-1852.096	497.374	318.048	-2027.604	478.489	73.628	-1868.760	497.033	204.829	-2050.795	480.350	178.250	-1858.534	77.053	303.501	-2125.225	66.851	117.558	-1853.462	84.559	233.038	-2116.375	77.623	186.001	-2042.712	1467.644	164.789	-1941.929	1404.977	242.312	-1950.662	1395.590	94.217	-1958.854	1401.154	164.973	-1917.729	1200.376	168.504	-1860.075	599.351	403.590	-1878.235	591.020	130.014	-1856.101	664.055	332.316	-1944.038	658.583	86.494	-1834.153	585.862	310.533	-1963.127	573.560	89.464	-1852.512	156.831	370.277	-1999.136	160.944	157.515	-1869.094	212.659	307.497	-2055.350	221.130	141.146	-1732.282	72.201	261.906	-1994.757	40.811	149.663
	46	0.59167	-1992.348	897.522	196.891	-1990.438	889.721	247.877	-1992.167	886.748	141.362	-1847.459	494.792	258.622	-2032.161	477.521	132.832	-1833.667	76.911	265.454	-2122.826	68.797	156.908	-1912.580	984.995	190.641	-1910.897	987.891	294.400	-1914.265	982.098	86.882	-2112.182	1011.003	236.998	-2114.652	1012.367	152.395	-1844.264	497.564	317.971	-2024.515	478.003	73.827	-1861.424	496.938	204.901	-2047.849	480.195	178.346	-1841.190	77.272	302.700	-2125.082	66.977	117.514	-1836.097	85.001	232.208	-2116.168	77.596	185.985	-2037.192	1466.959	165.372	-1936.409	1403.970	243.036	-1945.097	1394.687	94.489	-1953.308	1400.223	165.464	-1912.520	1199.374	168.861	-1852.944	599.434	403.605	-1874.446	589.915	130.340	-1849.453	664.113	332.240	-1939.893	657.817	86.775	-1827.117	586.044	310.478	-1959.531	572.885	89.680	-1837.038	156.941	369.631	-1998.385	160.205	157.690	-1854.771	212.552	306.964	-2054.279	220.755	141.317	-1714.549	73.630	261.111	-1994.770	40.793	149.640
	47	0.60000	-1986.981	896.564	196.897	-1984.676	889.036	248.143	-1986.638	886.018	141.634	-1839.677	494.960	258.583	-2029.043	477.065	133.024	-1816.645	77.508	264.725	-2122.728	68.924	156.869	-1907.093	984.407	190.696	-1905.182	987.348	294.486	-1909.005	981.465	86.905	-2106.703	1010.088	237.204	-2109.292	1011.484	152.631	-1836.525	497.692	317.937	-2021.399	477.515	74.019	-1854.164	496.751	205.013	-2044.525	479.871	178.710	-1824.191	77.640	301.968	-2124.939	67.129	117.472	-1819.131	85.534	231.502	-2115.955	77.685	185.985	-2031.605	1466.247	165.992	-1930.881	1402.932	243.800	-1939.525	1393.729	94.945	-1947.754	1399.253	166.068	-1907.395	1198.316	169.378	-1845.801	599.470	403.634	-1870.633	588.787	130.545	-1842.792	664.091	332.183	-1935.878	657.028	87.013	-1820.099	586.132	310.442	-1955.898	572.145	89.945	-1821.826	157.133	369.050	-1997.647	159.486	157.855	-1840.614	212.524	306.465	-2053.192	220.422	141.363	-1697.227	75.102	260.285	-1994.781	40.788	149.631
	48	0.60833	-1981.575	895.541	196.859	-1978.837	888.323	248.390	-1981.059	885.269	141.887	-1832.034	495.036	258.586	-2025.868	476.603	133.214	-1800.002	78.216	264.071	-2122.611	69.080	156.830	-1901.546	983.797	190.721	-1899.380	986.774	294.541	-1903.712	980.819	86.901	-2101.126	1009.136	237.471	-2103.884	1010.585	152.916	-1828.888	497.749	317.941	-2018.270	477.023	74.203	-1847.230	496.467	205.179	-2041.302	479.664	178.884	-1807.547	78.126	301.314	-2124.783	67.312	117.430	-1802.616	86.188	230.846	-2115.743	77.883	185.967	-2025.978	1465.491	166.643	-1925.369	1401.846	244.674	-1933.959	1392.740	95.409	-1942.211	1398.247	166.729	-1902.326	1197.214	169.929	-1838.641	599.450	403.672	-1866.789	587.636	130.638	-1836.170	663.996	332.135	-1931.582	656.294	87.296	-1813.198	586.108	310.393	-1952.184	571.404	90.146	-1806.885	157.422	368.549	-1996.906	158.781	157.999	-1826.744	212.576	306.003	-2051.939	220.104	141.394	-1680.359	76.631	259.422	-1994.775	40.783	149.629
	49	0.61667	-1976.130	894.451	196.760	-1972.926	887.582	248.631	-1975.459	884.495	142.136	-1824.538	495.007	258.625	-2022.651	476.134	133.401	-1783.775	78.998	263.493	-2122.458	69.263	156.789	-1895.949	983.155	190.708	-1893.480	986.166	294.561	-1898.419	980.144	86.854	-2095.435	1008.149	237.812	-2098.429	1009.673	153.251	-1821.359	497.720	317.978	-2015.141	476.528	74.378	-1840.371	496.122	205.382	-2038.317	479.678	179.042	-1791.291	78.698	300.741	-2124.601	67.524	117.386	-1786.403	86.939	230.179	-2115.527	78.083	185.941	-2020.340	1464.697	167.328	-1919.853	1400.651	245.584	-1928.379	1391.714	95.865	-1936.658	1397.173	167.404	-1897.296	1196.034	170.401	-1831.473	599.364	403.714	-1862.910	586.460	130.622	-1829.559	663.873	332.075	-1927.153	655.521	87.542	-1806.329	586.043	310.347	-1948.544	570.692	90.297	-1792.235	157.800	368.132	-1996.137	158.077	158.112	-1813.184	212.652	305.609	-2050.666	219.809	141.485	-1663.961	78.211	258.545	-1994.755	40.780	149.625
	50	0.62500	-1970.419	893.539	196.605	-1966.945	886.813	248.867	-1969.841	883.695	142.382	-1817.175	494.867	258.687	-2019.394	475.665	133.586	-1768.002	79.822	262.995	-2122.261	69.473	156.744	-1890.304	982.480	190.653	-1887.478	985.523	294.544	-1893.130	979.437	86.762	-2089.629	1007.135	238.232	-2092.929	1008.750	153.632	-1813.931	497.593	318.036	-2012.011	476.041	74.547	-1833.598	495.713	205.601	-2034.942	479.427	179.369	-1775.462	79.325	300.252	-2124.387	67.765	117.338	-1770.557	87.707	229.678	-2115.299	78.281	185.924	-2014.697	1463.872	168.110	-1914.260	1399.393	246.580	-1922.755	1390.647	96.415	-1931.045	1396.046	168.172	-1892.183	1194.806	170.927	-1824.306	599.204	403.758	-1858.994	585.265	130.504	-1822.869	663.654	332.009	-1923.057	654.680	87.619	-1799.479	585.920	310.321	-1944.923	569.977	90.396	-1777.913	158.248	367.800	-1995.331	157.369	158.192	-1799.928	212.753	305.330	-2049.375	219.506	141.671	-1648.054	79.827	257.682	-1994.721	40.776	149.612
	51	0.63333	-1964.442	892.820	196.432	-1960.884	886.018	249.084	-1964.181	882.874	142.611	-1809.930	494.618	258.768	-2016.079	475.198	133.765	-1752.713	80.659	262.578	-2122.037	69.712	156.695	-1884.592	981.774	190.560	-1881.374	984.843	294.492	-1887.809	978.705	86.629	-2083.725	1006.106	238.719	-2087.376	1007.818	154.064	-1806.599	497.371	318.111	-2008.863	475.561	74.705	-1826.996	495.124	205.886	-2031.135	478.903	179.687	-1760.097	79.981	299.848	-2124.146	68.035	117.287	-1755.290	88.451	229.347	-2115.041	78.480	185.902	-2009.021	1463.029	168.956	-1908.621	1398.111	247.740	-1917.116	1389.563	96.965	-1925.402	1394.899	169.024	-1887.049	1193.558	171.510	-1817.150	598.959	403.796	-1855.047	584.060	130.280	-1816.154	663.317	331.929	-1919.040	653.843	87.610	-1792.678	585.622	310.304	-1941.146	569.217	90.436	-1763.958	158.756	367.552	-1994.551	156.671	158.263	-1786.992	212.885	305.163	-2047.994	219.178	141.879	-1632.663	81.476	256.855	-1994.670	40.773	149.598
